<svg id="logosandtypes_com" xmlns="http://www.w3.org/2000/svg" viewBox="0 0 150 150"><style>.st1{fill:#010101}</style><path d="M0 0h150v150H0V0z" fill="none"/><path class="st1" d="M122.2 129.2c-7.4-2.8-18-11-24.2-18.5-7.9-9-26.9-34.6-26.9-34.6-9.8-12.6-22.8-33.5-35.7-44v83.6H47V73.5c8.1 10.3 17.6 23.6 24.7 31.9 3.1 3.7 11.2 12.5 13.5 14.4 14.8 14.5 42.1 21 64.8 13v-.8c-7.8 1.8-17.9 1.2-27.8-2.8z"/><path class="st1" d="M52 39.3c7.9 9 26.9 34.6 26.9 34.6 9.8 12.6 22.8 33.5 35.7 44V34.2H103v42.2c-8.1-10.3-17.6-23.6-24.7-31.9-3.1-3.7-11.2-12.5-13.5-14.4C49.9 15.6 22.7 9.1 0 17v.8c7.8-1.7 17.9-1.1 27.8 2.9 7.4 2.8 18 11 24.2 18.6z"/></svg>